<svg xmlns="http://www.w3.org/2000/svg" viewBox="0 0 439.58 328.53"><defs><style>.cls-1{fill:#020202;}.cls-2{fill:#fff;}</style></defs><title>1</title><g id="Layer_2" data-name="Layer 2"><g id="OBJECTS"><path class="cls-1" d="M422.19,42.41V14.72l-4-1.55C416.8,12.61,384.26,0,340.88,0c-46.46,0-86.57,14.18-119.11,42.09C189.16,14.18,149.12,0,102.6,0,59.22,0,26.66,12.61,25.31,13.17l-3.95,1.55V40.38C8.19,42.84,0,47.27,0,54.43V318.71H194.63c6.74,6.07,16.64,9.82,27.62,9.82s20.87-3.75,27.56-9.82H439.58V54.43c0-5.87-6.61-9.69-17.39-12Z"/><path class="cls-2" d="M219.66,297.9c-16.18-6.69-71.83-27.83-127.58-27.83-22,0-41.52,3.34-58.19,10V23.45A228.68,228.68,0,0,1,102.6,12.61c42.84,0,79.61,13,109.61,38.13V204l7.45-8.19Z"/><path class="cls-2" d="M409.57,280.17c-17.87-7.17-38.34-10.78-61.05-10.78-55.74,0-108.74,21.35-124.64,28.37v-102l7.37,8.19V50.74c30-25.18,66.79-38.13,109.63-38.13a228.38,228.38,0,0,1,68.69,10.84Z"/></g></g></svg>