<svg xmlns="http://www.w3.org/2000/svg" viewBox="0 0 148.84 129.05"><defs><style>.cls-1{fill:#fff;}.cls-2{fill:#070808;}</style></defs><title>2</title><g id="Layer_2" data-name="Layer 2"><g id="Layer_1-2" data-name="Layer 1"><polygon class="cls-1" points="49.33 100.34 39.3 129.05 74.42 100.34 49.33 100.34"/><rect class="cls-1" width="148.84" height="100.34" rx="12.37"/><path class="cls-2" d="M51.3,38c.27-12.93,8.77-22.33,22-22.33,17.08,0,22.5,10.49,22.5,17.45,0,8.77-3.7,12.29-7.59,15.27s-8.05,5.25-8.86,10.58v3.43H67.12V58.3c.54-7.87,4.25-11.39,7.86-14.2s6.6-4.88,6.6-9.76c0-5.51-2.89-8.13-7.68-8.13-6.51,0-9.22,5.33-9.31,11.75ZM65.85,67.79H80V81.71H65.85Z"/></g></g></svg>