<svg xmlns="http://www.w3.org/2000/svg" viewBox="0 0 158.7 182"><defs><style>.cls-1{fill:#fff;}.cls-2{fill:#f4f9fc;}.cls-3{fill:#fafcfe;}</style></defs><title>Asset 15</title><g id="Layer_2" data-name="Layer 2"><g id="Layer_1-2" data-name="Layer 1"><path class="cls-1" d="M22.38,49.25C15.87,46.12,9.29,43.13,2.74,40.1A4.69,4.69,0,0,0,0,44.34H0c6.12,4.43,13.22,7,19.85,10.51,2.48,1.3,4.45,1,5.53-1.51S24,50,22.38,49.25Z"/><path class="cls-1" d="M45.26,27.1c-3.41-6.37-6.95-12.66-10.45-19a4.7,4.7,0,0,0-4.72,1.81h0c2.33,7.2,6.52,13.49,9.82,20.21,1.23,2.52,3,3.44,5.34,2S46.11,28.69,45.26,27.1Z"/><path class="cls-1" d="M111.44,26.46c4-6,8.06-12,12.1-18a4.69,4.69,0,0,1,4.54,2.22h0c-3,7-7.69,12.85-11.58,19.25-1.45,2.39-3.3,3.15-5.51,1.56S110.46,28,111.44,26.46Z"/><path class="cls-1" d="M80,24.41c5.61.05,1.55-7.48,2.92-10.75,0-2.88.06-5.12,0-7.36-.09-2.68.76-6.36-3.42-6.3-3.64.05-2.75,3.5-2.89,5.84a26,26,0,0,0,0,6.71C77.46,16.77,73.63,24.35,80,24.41Z"/><path class="cls-1" d="M138.34,55.32c6.25-3,12.51-6.07,18.71-9.22.85-.43,1.34-1.56,1.62-1.91.22-3.4-1.24-4.58-3.53-3.56-6.59,2.94-13.07,6.13-19.53,9.35-1.49.75-2.75,2-1.5,4C135.16,55.69,136.55,56.19,138.34,55.32Z"/><path d="M132.87,79.68C129.93,58.6,113.61,41,92.78,35.82a53.85,53.85,0,0,0-43.05,97c4,2.69,7.11,5.94,8,10.66.54,3,.1,6.15.1,9.24H58c0,2.1,0,4.2,0,6.31,0,5.36,1.78,9.72,7.18,11.77a3.46,3.46,0,0,1,2,2.44c2.21,5.69,6.39,8.67,12.46,8.77,6.28.1,10.5-3.08,12.87-8.76a4.12,4.12,0,0,1,2.32-2.58c4.61-2,6.49-5.86,6.62-10.66.11-3.83.14-7.67,0-11.49-.25-6.95,2.77-11.89,8.41-15.87C128.19,119.7,136,101.91,132.87,79.68ZM80.25,176.61c-3.38.26-5.79-1.43-7.75-4.84H86.88A7.3,7.3,0,0,1,80.25,176.61Zm14.26-12.55c-1.53,1.7-3.65,2.05-5.75,2.07-6,.08-12.08.1-18.12,0-2.2,0-4.52-.26-5.88-2.45-.43-.7-1.09-1.47-.7-2.37s1.49-.66,2.3-.67c4.56,0,9.12,0,13.68,0,4.32,0,8.64,0,12.95,0,.92,0,2.17-.43,2.58.8C95.9,162.43,95.16,163.34,94.51,164.06Zm-1.43-8.8c-4.43-.12-8.87,0-13.31,0s-8.87-.1-13.31.05c-2.15.07-2.71-.72-2.7-2.77s.69-2.52,2.59-2.5q13.31.12,26.62,0c1.9,0,2.94.28,2.92,2.57S95.13,155.32,93.08,155.26Zm14-27.46c-5.27,3.67-9.33,8-10.67,14.49-.53,2.56-2.43,1.94-4.07,2-2.18.07-1.79-1.56-1.81-2.85,0-2.35-.06-4.7,0-7.05.06-2,.17-3.58-2.74-3.52-2.69,0-2.6,1.52-2.57,3.36.05,2.6,0,5.19,0,7.79,0,1.21-.17,2.26-1.73,2.26h-7c-1.26,0-1.72-.74-1.72-1.9,0-.86,0-1.73,0-2.59,0-11.39,0-11.39-3-11.36-2.78,0-2.78,0-2.8,11.53,0,.62,0,1.24,0,1.85,0,1.33-.07,2.55-1.88,2.49-1.55,0-3.35.47-3.81-1.85-1.37-6.74-5.66-11.14-11.15-15a47.93,47.93,0,0,1,20.18-86.7c29.43-4.92,55.65,17.62,55.58,52.64C127.53,105.11,120.72,118.31,107.1,127.8Z"/><path class="cls-1" d="M72.27,40.75a47.93,47.93,0,0,0-20.18,86.7c5.49,3.85,9.78,8.25,11.15,15,.46,2.32,2.26,1.8,3.81,1.85,1.81.06,1.9-1.16,1.88-2.49,0-.61,0-1.23,0-1.85,0-11.5,0-11.5,2.8-11.53,3,0,3,0,3,11.36,0,.86,0,1.73,0,2.59,0,1.16.46,1.9,1.72,1.9h7c1.56,0,1.74-1.05,1.73-2.26,0-2.6,0-5.19,0-7.79,0-1.84-.12-3.31,2.57-3.36,2.91-.06,2.8,1.55,2.74,3.52-.06,2.35,0,4.7,0,7.05,0,1.29-.37,2.92,1.81,2.85,1.64-.06,3.54.56,4.07-2,1.34-6.44,5.4-10.82,10.67-14.49,13.62-9.49,20.43-22.69,20.75-34.41C127.92,58.37,101.7,35.83,72.27,40.75Z"/><path class="cls-2" d="M93,160.63c-4.31,0-8.63,0-12.95,0-4.56,0-9.12,0-13.68,0-.81,0-1.85-.35-2.3.67s.27,1.67.7,2.37c1.36,2.19,3.68,2.41,5.88,2.45,6,.11,12.08.09,18.12,0,2.1,0,4.22-.37,5.75-2.07.65-.72,1.39-1.63,1.06-2.63C95.16,160.2,93.91,160.64,93,160.63Z"/><path class="cls-1" d="M93,150q-13.31.1-26.62,0c-1.9,0-2.57.54-2.59,2.5s.55,2.84,2.7,2.77c4.44-.15,8.88-.05,13.31-.05s8.88-.08,13.31,0c2,.06,2.79-.54,2.81-2.69S94.87,150,93,150Z"/><path class="cls-3" d="M80.25,176.61a7.3,7.3,0,0,0,6.63-4.84H72.5C74.46,175.18,76.87,176.87,80.25,176.61Z"/></g></g></svg>