<svg xmlns="http://www.w3.org/2000/svg" viewBox="0 0 76.96 111.89"><defs><style>.cls-1{fill:#fff;}</style></defs><title>Asset 10</title><g id="Layer_2" data-name="Layer 2"><g id="Layer_1-2" data-name="Layer 1"><path class="cls-1" d="M76.89,61c0,15.27-.1,30.54.07,45.81,0,3.78-1.16,5.11-5,5.09q-33.45-.19-66.89,0c-3.75,0-5.11-1.24-5.1-5Q.15,61.28,0,15.68c0-3.59,1.13-5.35,5-5.2,5.8.23,11.61.14,17.41,0,3.19-.07,4.64.77,4.53,4.44-.22,7.35,2.88,10,10.18,10.32,9.31.44,13.24-2.36,13.28-11.28,0-1.14,2.35-3.19,3.7-3.27,6.09-.36,12.21-.05,18.32-.22,3.46-.1,4.48,1.4,4.46,4.67C76.83,30.44,76.89,45.72,76.89,61ZM68.27,78.73c0-14.26.07-28.72-.17-43.17,0-1-2.43-2.8-3.74-2.82-17.25-.19-34.5-.1-51.75-.14-2.77,0-3.73,1.28-3.72,3.93,0,13.12.07,26.25,0,39.38,0,3.28,1.93,3.6,4.46,3.74s3.48-1.14,3.51-3.54a42.25,42.25,0,0,1,.47-7.3c.78-4.11,3.76-6.22,7.67-6.76,3.58-.49,7.28-1.06,9,3.77.92,2.58,2.84,4.8,4.62,7.69,2-3.34,3.27-6.15,5.15-8.5,1.14-1.42,3.15-2.89,4.85-3,7.88-.49,11.63,3.39,11.74,11.53C60.45,80.25,60.66,80.41,68.27,78.73Zm-29.88,17c8.39,0,16.78.15,25.16-.14,1.6,0,3.14-1.86,4.71-2.86-1.47-.9-2.94-2.58-4.43-2.6C47.06,89.91,30.29,90,13.51,90c-2,0-4.65-.55-4.54,2.88s2.71,2.75,4.72,2.77C21.92,95.73,30.16,95.69,38.39,95.69Zm.3,4.6c-8.55,0-17.09,0-25.64,0-1.91,0-4.63-.35-3.9,2.7.29,1.23,2.64,2.77,4.07,2.78q25.4.3,50.81,0c1.43,0,2.83-1.9,4.24-2.92-1.46-.86-2.91-2.42-4.41-2.46C55.48,100.16,47.08,100.28,38.69,100.29Z"/><path class="cls-1" d="M31.59,10.09c0-1.22,0-2.43,0-3.65C31.64.52,32.11.06,38.17,0,45-.06,45.63.56,45.63,7.52c0,2.74,0,5.47,0,8.2,0,3.33-1.66,4.85-5.1,5C31.89,21,31.59,20.69,31.59,10.09Z"/><path d="M68.27,78.73c-7.61,1.68-7.82,1.52-7.92-5.19-.11-8.14-3.86-12-11.74-11.53-1.7.11-3.71,1.58-4.85,3-1.88,2.35-3.18,5.16-5.15,8.5-1.78-2.89-3.7-5.11-4.62-7.69-1.72-4.83-5.42-4.26-9-3.77-3.91.54-6.89,2.65-7.67,6.76a42.25,42.25,0,0,0-.47,7.3c0,2.4-.86,3.68-3.51,3.54s-4.47-.46-4.46-3.74c.08-13.13.06-26.26,0-39.38,0-2.65.95-3.94,3.72-3.93,17.25,0,34.5-.05,51.75.14,1.31,0,3.72,1.82,3.74,2.82C68.34,50,68.27,64.47,68.27,78.73ZM38.39,56.52A11.56,11.56,0,0,0,50.25,45.19a11.78,11.78,0,0,0-11.6-11.73A11.57,11.57,0,0,0,26.86,44.94,11.26,11.26,0,0,0,38.39,56.52Z"/><path d="M38.39,95.69c-8.23,0-16.47,0-24.7,0-2,0-4.6.54-4.72-2.77S11.55,90,13.51,90c16.78-.06,33.55-.1,50.32.08,1.49,0,3,1.7,4.43,2.6-1.57,1-3.11,2.81-4.71,2.86C55.17,95.84,46.78,95.69,38.39,95.69Z"/><path d="M38.69,100.29c8.39,0,16.79-.13,25.17.11,1.5,0,3,1.6,4.41,2.46-1.41,1-2.81,2.9-4.24,2.92q-25.39.3-50.81,0c-1.43,0-3.78-1.55-4.07-2.78-.73-3,2-2.69,3.9-2.7C21.6,100.27,30.14,100.29,38.69,100.29Z"/><path class="cls-1" d="M38.39,56.52A11.26,11.26,0,0,1,26.86,44.94,11.57,11.57,0,0,1,38.65,33.46a11.78,11.78,0,0,1,11.6,11.73A11.56,11.56,0,0,1,38.39,56.52Z"/></g></g></svg>