<svg xmlns="http://www.w3.org/2000/svg" viewBox="0 0 196.82 158.31"><defs><style>.cls-1{fill:#fff;}</style></defs><title>Asset 18</title><g id="Layer_2" data-name="Layer 2"><g id="Layer_1-2" data-name="Layer 1"><path class="cls-1" d="M54.93,158.31c0-18.69-1-37.13.31-55.42C56.26,88.24,70,75.63,84.8,73.71c14-1.82,28.18-3.09,40.79,5.46,10.29,7,16.14,16.76,16.28,29.38.17,16.06,0,32.12,0,48.18a7.44,7.44,0,0,1-.49,1.58Z"/><path class="cls-1" d="M81,70.58c-21.1,7.09-29.79,19.29-29.71,41.24,0,9.48,0,19,0,29.14H0c0-4.73-.06-9,0-13.32.22-13.87-.69-27.89,1-41.58C3.3,68.27,16.44,56.51,34.4,55.28a115.13,115.13,0,0,1,28.25,2C70.34,58.64,76.42,63.79,81,70.58Z"/><path d="M7.69,133.28c0-1.86,0-3.69,0-5.52.07-4.23,0-8.49,0-12.73-.09-9.75-.17-19,1-28,1.74-13.87,11.79-23.09,26.23-24.09,1.81-.12,3.69-.18,5.6-.18a116.76,116.76,0,0,1,20.75,2A16.42,16.42,0,0,1,68,67.71C51.1,76.47,43.48,90.46,43.57,111.85c0,6.44,0,12.89,0,19.55v1.88Z"/><path class="cls-1" d="M114.19,70.18c5.9-4.35,10.39-9.19,15.94-11.45a58,58,0,0,1,45.12,0c13.19,5.5,20.34,16.74,21.1,30.73.9,16.79.21,33.66.21,51H145.43c0-9.8,0-19.48,0-29.15C145.51,89.85,136.38,77.22,114.19,70.18Z"/><path d="M153.1,132.79v-1.24c0-6.77,0-13.49,0-20.21.06-20.44-7.63-34.45-24-43.24A18.7,18.7,0,0,1,133,65.85a52.38,52.38,0,0,1,19.81-4,50.23,50.23,0,0,1,19.47,4c12.76,5.31,15.95,16,16.38,24,.62,11.44.48,22.8.33,34.82,0,2.69-.06,5.38-.08,8.09Z"/><path class="cls-1" d="M98.09,67.94A25.27,25.27,0,0,1,72.7,42.16a25.56,25.56,0,0,1,25.66-25c13.88.13,25.47,11.61,25.58,25.32A25.54,25.54,0,0,1,98.09,67.94Z"/><path d="M16.55,25.16A25.33,25.33,0,0,1,42.05,0C55.69,0,67.53,12,67.36,25.56,67.18,40.3,55.87,51.29,41.07,51.1,27.27,50.92,16.32,39.34,16.55,25.16Z"/><path class="cls-1" d="M180.14,25.9a25.13,25.13,0,0,1-24.68,25.19c-14.76.13-26.09-11-26.21-25.67C129.14,11.94,141.19-.07,154.76,0,169.09.08,180.09,11.31,180.14,25.9Z"/><path d="M155.19,43.41c-10.49,0-18.17-7.59-18.26-18.06a17.43,17.43,0,0,1,5.28-12.2,17.77,17.77,0,0,1,12.42-5.47c10.17.05,17.8,7.9,17.83,18.25a17.36,17.36,0,0,1-17.07,17.48Z"/><path class="cls-1" d="M16.55,25.16A25.33,25.33,0,0,1,42.05,0C55.69,0,67.53,12,67.36,25.56,67.18,40.3,55.87,51.29,41.07,51.1,27.27,50.92,16.32,39.34,16.55,25.16Z"/><path d="M41.17,43.42a16.78,16.78,0,0,1-11.88-5.15,18,18,0,0,1-5.07-13A17.53,17.53,0,0,1,54.47,13.15a17.53,17.53,0,0,1,5.22,12.31c-.13,10.41-7.8,18-18.24,18Z"/></g></g></svg>