<svg xmlns="http://www.w3.org/2000/svg" viewBox="0 0 139.34 86.77"><defs><style>.cls-1{fill:#fff;}</style></defs><title>Asset 12</title><g id="Layer_2" data-name="Layer 2"><g id="Layer_1-2" data-name="Layer 1"><path class="cls-1" d="M126.81,43.05c0-5.12,0-10.2,0-15.28,0-4.78,2.08-6.63,7.09-6.48,4.85.15,5.48,2.43,5.45,6.43-.12,19.29-.06,38.59-.06,58.84-3.06,0-5.71.58-7.9-.18-1.85-.64-4.22-2.68-4.5-4.39-.65-4.12-.21-8.41-.21-13H12.55c0,3.45,0,6.59,0,9.72,0,8-.08,8-8.27,7.88-1,0-2.08-.17-3.81-.32-.14-2.1-.4-4.13-.4-6.17C0,55.61.11,31.17,0,6.74,0,2.59.36-.21,5.69,0c4.63.19,7,1.31,6.9,6.57-.28,10.19,0,20.39,0,30.59,0,4.31,1.53,6.87,6.27,6.85q52.9-.12,105.82-.19A11.39,11.39,0,0,0,126.81,43.05Z"/><path class="cls-1" d="M49.21,37.09c-1.28-10.24,3.65-17.72,13.3-18a377.89,377.89,0,0,1,42.57.87c11.56.92,13.7,4.7,12.3,17.17Z"/><path class="cls-1" d="M33.41,38A14.88,14.88,0,0,1,18.65,23.63a14.74,14.74,0,1,1,29.48,0A14.85,14.85,0,0,1,33.41,38Z"/></g></g></svg>