<svg xmlns="http://www.w3.org/2000/svg" viewBox="0 0 166.82 166.3"><defs><style>.cls-1{fill:#fff;}</style></defs><title>Asset 16</title><g id="Layer_2" data-name="Layer 2"><g id="Layer_1-2" data-name="Layer 1"><path d="M111.76,158.19c-12.87-.1-24.81-2.82-35.46-9.06-7.53-4.41-13.42-10-17-17.21-5.49-11-4.86-22,1.6-32.55,6-9.79,15.42-16.49,27.42-20.55a70,70,0,0,1,43.75-.6c11.37,3.45,20.63,9.32,27.25,17.93,6.26,8.15,8.66,17.08,6.95,26.71-1.6,9-6.62,16.45-14.19,22.77-.56.47-.77.88-.5,1.49.11.23.15.48.26.71,1.87,4.07,5.22,6.94,9.91,8.72a16.85,16.85,0,0,1,2.74,1.17c2.87,1.72,3,4.9.22,6.7a10.42,10.42,0,0,1-3.61,1.45,31,31,0,0,1-9.56.11c-10-1.15-19-4.44-27.78-8.44a2.05,2.05,0,0,0-1-.16c-3.67.32-7.35.66-11,1Zm40.35-.81a18.06,18.06,0,0,1-7.2-10.73c-.4-1.64,0-2.57,1.45-3.69,7.29-5.5,12-12.28,13.56-20.5,1.74-9.21-.83-17.6-7.32-25.1-6.86-7.92-16.18-12.9-27.34-15.36a62.8,62.8,0,0,0-35.8,2.2c-11,4.06-19.42,10.55-24.24,20C58.69,117,62.41,131.48,74.48,141c8.27,6.5,18.11,10.1,29.21,11.37a62.68,62.68,0,0,0,18.75-.45,5.24,5.24,0,0,1,3.59.5,90.94,90.94,0,0,0,25,8,44.32,44.32,0,0,0,4.91.37,9.15,9.15,0,0,0,1.54-.16C155.61,159.53,153.75,158.56,152.11,157.38Z"/><path class="cls-1" d="M155.93,160.82a44.32,44.32,0,0,1-4.91-.37,90.94,90.94,0,0,1-25-8,5.24,5.24,0,0,0-3.59-.5,62.68,62.68,0,0,1-18.75.45c-11.1-1.27-20.94-4.87-29.21-11.37-12.07-9.5-15.79-24-9.26-36.79,4.82-9.44,13.21-15.93,24.24-20a62.8,62.8,0,0,1,35.8-2.2c11.16,2.46,20.48,7.44,27.34,15.36,6.49,7.5,9.06,15.89,7.32,25.1-1.54,8.22-6.27,15-13.56,20.5-1.49,1.12-1.85,2-1.45,3.69a18.06,18.06,0,0,0,7.2,10.73c1.64,1.18,3.5,2.15,5.36,3.28A9.15,9.15,0,0,1,155.93,160.82Z"/><path d="M138.21,113.06v-7.48H84.32v7.48Z"/><path d="M100.16,124.7v7.48h38V124.7Z"/><path d="M66.27,118.93c-4.43-.48-8.85-1-13.28-1.42a2.1,2.1,0,0,0-1.16.22c-10.54,5.71-21.46,10.4-33.45,12a31.36,31.36,0,0,1-11.51-.16,11.71,11.71,0,0,1-4.35-2.06A5.75,5.75,0,0,1,2.79,118a19.18,19.18,0,0,1,3.29-1.67,21.94,21.94,0,0,0,12-12.44c.13-.33.18-.69.3-1a1.77,1.77,0,0,0-.6-2.12C8.62,91.72,2.57,81,.65,68.26A53.35,53.35,0,0,1,9,30.16C17,17.88,28.14,9.51,41.83,4.58a71.85,71.85,0,0,1,52.68.86c14.46,5.8,25.83,15.36,33,29.31,7.78,15.1,8.54,30.71,1.93,46.44-4.29,10.22-11.38,18.26-20.45,24.55-12.84,8.9-27.21,12.78-42.7,12.92Zm-55,3.24a10,10,0,0,0,1.85.25,46.36,46.36,0,0,0,5.91-.54,97.6,97.6,0,0,0,30.1-11.49,5.45,5.45,0,0,1,4.31-.7,64,64,0,0,0,22.6.63c13.36-1.81,25.21-6.94,35.16-16.21a46.2,46.2,0,0,0,11.16-52.48c-5.81-13.47-15.91-22.73-29.2-28.51A64.48,64.48,0,0,0,50,10C36.6,13.49,25.38,20.58,17.12,31.89,9.3,42.58,6.21,54.55,8.3,67.69c1.86,11.72,7.56,21.4,16.33,29.24a4.74,4.74,0,0,1,1.75,5.26,26.39,26.39,0,0,1-8.67,15.31C15.74,119.19,13.5,120.57,11.26,122.17Z"/><path class="cls-1" d="M11.26,122.17c2.24-1.6,4.48-3,6.45-4.67a26.39,26.39,0,0,0,8.67-15.31,4.74,4.74,0,0,0-1.75-5.26C15.86,89.09,10.16,79.41,8.3,67.69c-2.09-13.14,1-25.11,8.82-35.8C25.38,20.58,36.6,13.49,50,10a64.48,64.48,0,0,1,43.11,3.14c13.29,5.78,23.39,15,29.2,28.51a46.2,46.2,0,0,1-11.16,52.48c-10,9.27-21.8,14.4-35.16,16.21a64,64,0,0,1-22.6-.63,5.45,5.45,0,0,0-4.31.7A97.6,97.6,0,0,1,19,121.88a46.36,46.36,0,0,1-5.91.54A10,10,0,0,1,11.26,122.17Zm88.1-87.58H34.47v7.52H99.36ZM34.45,61.2h64.9V53.72H34.45ZM80.27,72.83H34.49v7.48H80.27Z"/><path d="M99.36,34.59v7.52H34.47V34.59Z"/><path d="M34.45,61.2V53.72h64.9V61.2Z"/><path d="M80.27,72.83v7.48H34.49V72.83Z"/></g></g></svg>