<svg xmlns="http://www.w3.org/2000/svg" viewBox="0 0 123.68 147.72"><defs><style>.cls-1{fill:#fff;}.cls-2{fill:#f4f9fc;}.cls-3{fill:#fafcfe;}</style></defs><title>Asset 4</title><g id="Layer_2" data-name="Layer 2"><g id="Layer_1-2" data-name="Layer 1"><path class="cls-1" d="M15.29,33.63c-4.45-2.14-8.94-4.17-13.42-6.25A3.23,3.23,0,0,0,0,30.28H0c4.18,3,9,4.8,13.55,7.17,1.7.89,3,.68,3.78-1S16.39,34.16,15.29,33.63Z"/><path class="cls-1" d="M30.91,18.51c-2.33-4.35-4.75-8.65-7.14-13a3.21,3.21,0,0,0-3.22,1.24h0C22.14,11.7,25,16,27.25,20.58c.84,1.72,2.05,2.35,3.65,1.4S31.49,19.59,30.91,18.51Z"/><path class="cls-1" d="M76.1,18.07c2.71-4.13,5.51-8.19,8.27-12.28a3.24,3.24,0,0,1,3.1,1.52h0c-2,4.75-5.26,8.77-7.91,13.14-1,1.64-2.26,2.16-3.77,1.07S75.43,19.1,76.1,18.07Z"/><path class="cls-1" d="M54.65,16.67c3.83,0,1.05-5.11,2-7.34,0-2,0-3.5,0-5C56.57,2.48,57.15,0,54.29,0c-2.49,0-1.87,2.39-2,4a18,18,0,0,0,0,4.58C52.9,11.45,50.28,16.63,54.65,16.67Z"/><path class="cls-1" d="M94.47,37.78c4.27-2.08,8.55-4.14,12.78-6.3.58-.29.92-1.07,1.11-1.3.15-2.33-.85-3.13-2.41-2.43-4.5,2-8.93,4.18-13.34,6.38-1,.51-1.88,1.37-1,2.74A2,2,0,0,0,94.47,37.78Z"/><path d="M90.74,54.41C88.73,40,77.59,28,63.36,24.46A36.77,36.77,0,0,0,34,90.69c2.72,1.84,4.86,4.06,5.44,7.29a36.87,36.87,0,0,1,.06,6.31h.13c0,1.43,0,2.87,0,4.3,0,3.66,1.22,6.65,4.91,8a2.36,2.36,0,0,1,1.36,1.67,8.67,8.67,0,0,0,8.51,6c4.29.07,7.17-2.11,8.79-6a2.85,2.85,0,0,1,1.59-1.76c3.15-1.36,4.43-4,4.52-7.28.07-2.61.09-5.23,0-7.84-.16-4.75,1.9-8.12,5.74-10.84C87.54,81.74,92.86,69.59,90.74,54.41ZM54.8,120.6c-2.31.19-3.95-1-5.29-3.3h9.82A5,5,0,0,1,54.8,120.6ZM64.54,112a5,5,0,0,1-3.93,1.41c-4.12,0-8.25.07-12.37,0-1.51,0-3.09-.17-4-1.67-.3-.48-.75-1-.48-1.62s1-.45,1.57-.45c3.11,0,6.23,0,9.34,0,3,0,5.9,0,8.84,0,.63,0,1.49-.3,1.76.54S65,111.54,64.54,112Zm-1-6c-3-.08-6.06,0-9.09,0s-6.07-.07-9.09,0c-1.48,0-1.86-.49-1.85-1.89s.47-1.72,1.77-1.71c6.06.06,12.12,0,18.18,0,1.3,0,2,.19,2,1.75S65,106.07,63.57,106Zm9.57-18.76c-3.6,2.51-6.37,5.5-7.28,9.9-.37,1.75-1.66,1.33-2.79,1.36-1.48.06-1.22-1.06-1.23-1.94,0-1.61-.05-3.21,0-4.81,0-1.35.11-2.45-1.88-2.41-1.83,0-1.77,1-1.75,2.3,0,1.77,0,3.54,0,5.31,0,.83-.12,1.55-1.18,1.55H52.23c-.86,0-1.18-.5-1.17-1.29,0-.59,0-1.18,0-1.77,0-7.78,0-7.78-2.06-7.76-1.89,0-1.89,0-1.91,7.87,0,.43,0,.85,0,1.27,0,.9,0,1.74-1.28,1.7-1.06,0-2.29.32-2.61-1.26-.93-4.61-3.86-7.61-7.61-10.24A32.74,32.74,0,0,1,49.36,27.83c20.09-3.36,38,12,38,36C87.09,71.78,82.44,80.8,73.14,87.27Z"/><path class="cls-1" d="M49.36,27.83A32.74,32.74,0,0,0,35.57,87c3.75,2.63,6.68,5.63,7.61,10.24.32,1.58,1.55,1.22,2.61,1.26,1.24,0,1.3-.8,1.28-1.7,0-.42,0-.84,0-1.27,0-7.85,0-7.85,1.91-7.87,2,0,2,0,2.06,7.76,0,.59,0,1.18,0,1.77,0,.79.31,1.29,1.17,1.29H57c1.06,0,1.18-.72,1.18-1.55,0-1.77,0-3.54,0-5.31,0-1.26-.08-2.26,1.75-2.3,2,0,1.92,1.06,1.88,2.41-.05,1.6,0,3.2,0,4.81,0,.88-.25,2,1.23,1.94,1.13,0,2.42.39,2.79-1.36.91-4.4,3.68-7.39,7.28-9.9,9.3-6.47,14-15.49,14.17-23.49C87.36,39.86,69.45,24.47,49.36,27.83Z"/><path class="cls-2" d="M63.5,109.7c-2.94,0-5.89,0-8.84,0-3.11,0-6.23,0-9.34,0-.56,0-1.27-.24-1.57.45s.18,1.14.48,1.62c.92,1.5,2.5,1.65,4,1.67,4.12.08,8.25.06,12.37,0A5,5,0,0,0,64.54,112c.45-.5.95-1.11.72-1.8S64.13,109.7,63.5,109.7Z"/><path class="cls-1" d="M63.49,102.44c-6.06,0-12.12,0-18.18,0-1.3,0-1.76.37-1.77,1.71s.37,1.94,1.85,1.89c3-.1,6.06,0,9.09,0s6.06,0,9.09,0c1.39,0,1.9-.37,1.92-1.84S64.79,102.43,63.49,102.44Z"/><path class="cls-3" d="M54.8,120.6a5,5,0,0,0,4.53-3.3H49.51C50.85,119.63,52.49,120.79,54.8,120.6Z"/><path class="cls-1" d="M115.4,105.49c-6.17,1.21-7.48,6.74-9.9,11.27a12.48,12.48,0,0,0,4.84,10c3.2,2.68,2.68,5-.16,7.83s-4.76,3.47-7.91.52c-8.29-7.75-18.34-5.06-21.54,5.91-1.31,4.46-3.81,4.29-7.14,3.41s-5.16-2.35-4.16-6.37c3-12-3.57-18.58-15.66-15.83-4.1.93-5.9-1-6.67-4.54-.67-3.15-.58-5.67,3.5-6.82,11.11-3.14,13.95-13.16,6.08-21.35-2.88-3-2.7-5,.16-7.88s4.91-3.29,8-.47c8.25,7.52,18,4.92,21.39-5.53.65-2,1.26-4.56,3.77-4.43s5.2.53,7.22,2.54c2.35,2.34-1.42,3.47-1,5.41h0c0,4.57.29,8.81,4.18,12.34,3.65,3.32,7.23,4.53,11.88,3,4-1.34,6.37-.56,7.62,4.19S119.25,104.74,115.4,105.49Z"/><path d="M122.72,96.19c-1.65-5.33-4.54-6.67-11.07-5.12-7.78,1.85-13.3-3.78-11.26-11.51.35-1.34.73-2.66,1.1-4-.21-.63-.41-1.26-.62-1.88h0c-2-5.47-6.93-5.46-11.32-5.68-3.32-.17-5.06,2.49-6,5.66-2.77,9.47-9.45,11.2-17,4.47C63,75,59.56,74.66,55.9,78c-5.93,5.44-6.17,8.37-.3,14.39,3.09,3.17,3.41,6,1.14,9.79a12.49,12.49,0,0,1-8,6c-5.21,1.44-6.12,4.59-4.07,11.4,1.46,4.84,4.3,6.51,9.1,5.35,10.12-2.44,15.1,2.35,12.88,12.38-1.28,5.84.39,8.26,6.84,9.85,5.86,1.44,8.7-.15,10.26-5.75,2.41-8.62,9.62-10.74,16.12-4.74,5.12,4.72,7.69,4.61,12.83-.56,4.18-4.2,4.07-7.57-.34-12.16-1.9-2-4.44-3.72-3.08-7.12h0c1.24-4.1,2.69-8,7.81-8.6C123.64,105.64,124.84,103.06,122.72,96.19Zm-7.29,9c-6.17,1.21-7.48,6.74-9.9,11.27a12.47,12.47,0,0,0,4.83,10c3.21,2.68,2.68,5-.15,7.83s-4.76,3.47-7.91.52c-8.3-7.75-18.34-5.06-21.55,5.91-1.3,4.46-3.81,4.29-7.13,3.41s-5.16-2.35-4.17-6.37c3-12-3.56-18.58-15.66-15.83-4.1.93-5.89-1-6.66-4.54-.68-3.15-.59-5.67,3.49-6.82,11.12-3.14,14-13.16,6.08-21.35-2.88-3-2.7-5,.17-7.88s4.91-3.29,8-.47c8.25,7.52,18,4.92,21.38-5.53.66-2,1.26-4.56,3.78-4.43s5.2.53,7.22,2.54c2.35,2.34-1.43,3.47-1,5.41h0c0,4.57.29,8.81,4.18,12.34,3.65,3.32,7.23,4.53,11.87,3,4-1.35,6.38-.57,7.62,4.18S119.28,104.42,115.43,105.17Z"/><path d="M89.84,92.83a0,0,0,0,0,0,0v0h-.48l-.09-.08L89,92.5l-3.64-.37A15.76,15.76,0,0,0,69,101.68a16,16,0,0,0,4.11,18.1c7.93,7.08,19.19,4.3,25.7-6.33h0c0-.06,0-.1,0-.15C100.65,103.61,98.39,98.46,89.84,92.83Zm6,18.56c-2.87,6.55-8,10-13.56,9.25A13,13,0,0,1,71,109.4c-.69-6.24,2.37-11.25,8.28-13.61a10,10,0,0,1,9.91.86h0C95.36,100.18,97,103.73,95.86,111.39Z"/></g></g></svg>