<svg xmlns="http://www.w3.org/2000/svg" viewBox="0 0 165.59 127.22"><defs><style>.cls-1{fill:#fff;}</style></defs><title>Asset 14</title><g id="Layer_2" data-name="Layer 2"><g id="Layer_1-2" data-name="Layer 1"><path class="cls-1" d="M23.49,48.47c-.55.11-1.11.16-1.76.24V78.16c3.19.77,6.41,1.32,9.54,2.36,6.76,2.25,13.47,4.76,20.21,7.13a8.5,8.5,0,0,0,1.74.26,4.4,4.4,0,0,0,1,.86c7.34,2.94,14.65,6.1,21.57,10.57,5.43,3.51,10.69,7.52,16,11.3l1.19.83c0-4,0-7.7,0-11.41,0-2.42-.15-4.83-.23-7.24A12,12,0,0,0,93,91.15q0-27.87,0-55.76a9.33,9.33,0,0,0-.24-1.45A6.25,6.25,0,0,0,93,32.75c0-5.63,0-11.26,0-17.19-1.6,1.24-3,2.36-4.49,3.49a136.85,136.85,0,0,1-34,19.18,7.58,7.58,0,0,0-1.12.72c-2.21.79-4.43,1.52-6.63,2.36C39.09,44.21,31.39,47,23.49,48.47Zm8.94,8.62a3.52,3.52,0,0,1,1.28-.72c6.73-2.4,13.47-4.75,20.19-7.2,1.77-.65,3.49-1.58,5.22-2.38a2.36,2.36,0,0,0,.65-.07A130.53,130.53,0,0,0,80.62,36.08L85.48,33c0,2.24,0,4.17,0,6.1,0,1.5.14,3,.21,4.49a51.17,51.17,0,0,0-.18,5.24c.11,1.89-.49,2.26-1.69,2.33a38.41,38.41,0,0,0-4.2.72c-.16-.09-.33-.27-.49-.25-4.64.54-9.28,1.08-13.92,1.67-.31,0-.6.39-.9.6A5.66,5.66,0,0,0,63,53.6c-1.13.06-2.25.21-3.37.34q-8.53,1-17.08,2C39.15,56.35,35.79,56.71,32.43,57.09Z"/><path class="cls-1" d="M115.68,121.91c1.89-.78,3.71-1.7,5.53-2.61,3.63-1.8,7.66-2.88,10.79-5.58,4.17-3.59,8.59-7,12.28-11a56.92,56.92,0,0,0,14.84-35.6,57.88,57.88,0,0,0-8.88-35.14A60.31,60.31,0,0,0,121.76,7.84c-2-.82-4-1.5-6-2.35a2.77,2.77,0,0,1-1.9-3.09A2.68,2.68,0,0,1,116.44,0a7.25,7.25,0,0,1,2.78.24c7.67,2.29,14.39,6.5,20.65,11.29A69.56,69.56,0,0,1,150.6,22.13c10,11.83,14.62,25.72,15,42.76-.29,2.58-.46,6.83-1.29,10.94-3.71,18.2-13.43,32.49-28.74,43a61.77,61.77,0,0,1-8.34,4.74,86.52,86.52,0,0,1-9.1,3.54,3.27,3.27,0,0,1-3.91-1.69C113.71,123.86,114,122.62,115.68,121.91Z"/><path class="cls-1" d="M0,54.55c0-3.82,1.58-5.9,4.38-5.9H17.85V78.45H4.54c-3,0-4.51-2.06-4.53-6.09Q0,63.45,0,54.55Z"/><path class="cls-1" d="M110.72,99.28a45.57,45.57,0,0,0,7.59-3.42c13.52-8.62,21.18-20.47,19.08-37-1.64-13.07-8.77-22.54-20.37-28.64a58,58,0,0,0-6.59-2.63c-1.73-.66-2.63-1.81-2.26-3.13.46-1.66,1.83-2.08,3.33-2.09a5.24,5.24,0,0,1,1.88.46,64.46,64.46,0,0,1,6,2.58c15.32,8.09,23.33,20.81,24,35.15,0,15.15-5.19,26.69-14.32,34.79a42.67,42.67,0,0,1-16.8,9.3,3.23,3.23,0,0,1-4.11-1.85C107.73,101.28,108.72,100.09,110.72,99.28Z"/><path class="cls-1" d="M27.24,85.12l10.38,3.17c-.42,2.57-.81,4.94-1.2,7.31q-1.44,8.67-2.9,17.32c-.42,2.5-1.59,3.86-3.18,3.51a39.83,39.83,0,0,1-5.45-1.6c-1.31-.48-2.2-2.53-1.9-4.34C24.35,102.16,25.77,93.85,27.24,85.12Z"/><path class="cls-1" d="M105.87,78.51c.17,0,.33-.12.51-.17,6.61-2,10.72-7.66,10.74-14.87s-4-12.76-10.57-14.78c-.51-.16-1.17-.19-1.48-.54-.49-.56-1.13-1.4-1-2a2.54,2.54,0,0,1,1.7-1.44,5,5,0,0,1,2.6.24c7.7,2.56,12.11,8,13.08,15.94.92,7.62-1.47,14.13-7.92,18.65-2,1.42-4.51,2.22-6.78,3.31l-.2-.42c-1.22.06-2.37-.15-2.58-1.57S104.63,78.81,105.87,78.51Z"/></g></g></svg>