<svg xmlns="http://www.w3.org/2000/svg" viewBox="0 0 144.11 172.83"><defs><style>.cls-1{fill:#fff;}</style></defs><title>Asset 5</title><g id="Layer_2" data-name="Layer 2"><g id="Layer_1-2" data-name="Layer 1"><path class="cls-1" d="M109.45,109.67c-.53,5-1,10-1.56,15q-1.55,14.77-3.08,29.53c-.49,4.65-.94,9.3-1.49,13.95-.34,2.85-2.58,4.64-5.7,4.64q-16.92,0-33.85,0H46.85c-3.79,0-5.73-1.82-6.13-5.57q-2.62-25-5.29-50.09c-.25-2.44-.47-4.89-.73-7.49Z"/><path class="cls-1" d="M132.87,86.47c2.16,0,4.19,0,6.23,0a4.64,4.64,0,0,1,5,4.94c.14,6.34.14,6.34-4.3,10.78-3.66,3.65-7.33,7.28-11,11a6,6,0,0,1-4.78,2c-2.93-.09-5.87,0-9.1,0,.21-2.49.35-4.85.62-7.2.42-3.59-.16-4.32-3.75-4.32H31.65c-2.58,0-3.43,1-3.17,3.56s.49,5.13.75,7.85c-3.78,0-7.42.1-11-.07a4.67,4.67,0,0,1-2.55-1.54c-4.76-4.67-9.5-9.35-14.12-14.15A6.55,6.55,0,0,1,.12,96a25.93,25.93,0,0,1,0-4.32c0-3.38,1.84-5.19,5.26-5.19H127c.09-3.87,0-7.6-2.07-11-.27-.44-1.18-.63-1.83-.71a8.6,8.6,0,0,1,1.48-17.14,8.43,8.43,0,0,1,7.93,9c-.16,1.69-1.2,3.3-1.83,5-.19.51-.64,1.19-.46,1.52,2,3.91,2.42,8.13,2.52,12.41A7.08,7.08,0,0,0,132.87,86.47Z"/><path class="cls-1" d="M78.34,70.82l8-18.55c4.89,1.65,9.6,3.18,14.28,4.83a26.53,26.53,0,0,1,4.54,2.15,8.28,8.28,0,0,1,4.29,7.6c0,4.49,0,9,0,13.61H34.66V76.39c0-3.06.05-6.13,0-9.19a8.53,8.53,0,0,1,4.62-8.14,26.63,26.63,0,0,1,4.23-2c4.68-1.63,9.39-3.17,14.28-4.81,2.55,5.89,5.19,12,8,18.57,1.26-3.07,2.37-5.71,3.4-8.4.09-.25-.31-.83-.62-1.09a6.65,6.65,0,0,1-2.2-6c.13-1.68,1-3,2.7-3.11a37,37,0,0,1,6.23,0A2.69,2.69,0,0,1,77.71,55c.23,2.43-.15,4.66-2.18,6.36A1.54,1.54,0,0,0,75,62.68C76,65.29,77.11,67.87,78.34,70.82Z"/><path class="cls-1" d="M89.13,19.92a44.89,44.89,0,0,1-2.51,13.49,20.46,20.46,0,0,1-2.79,5.64,19.23,19.23,0,0,1-7,5.75,10.07,10.07,0,0,1-9.67-.12,19.53,19.53,0,0,1-7.29-6.34,21.77,21.77,0,0,1-2.56-5.86A49.74,49.74,0,0,1,55.08,20a55,55,0,0,1,.05-7.26,15.82,15.82,0,0,1,2.94-6.64C62.9-.23,71.71,0,72.15,0c9.2.37,15.11,8.05,16.21,11.59a20.8,20.8,0,0,1,.74,4.24C89.22,17.19,89.13,18.56,89.13,19.92Z"/></g></g></svg>