<svg xmlns="http://www.w3.org/2000/svg" viewBox="0 0 124.44 176.09"><defs><style>.cls-1{fill:#fff;}</style></defs><title>Asset 17</title><g id="Layer_2" data-name="Layer 2"><g id="Layer_1-2" data-name="Layer 1"><rect class="cls-1" y="6.2" width="124.44" height="169.89" rx="5.04"/><path d="M31.74,14.43v7.73H14.3V160.72h95.84V22.23H92.74V14.37c.42,0,.81-.07,1.21-.07h19.69c3,0,4.42,1.46,4.42,4.45q0,47.72,0,95.43v49.66c0,3.53-1.33,4.84-4.9,4.84H10.9c-3,0-4.51-1.46-4.51-4.51q0-53.28,0-106.57,0-19.26,0-38.52c0-1.42,0-2.86,1.33-3.75a4.8,4.8,0,0,1,2.4-1c7.09-.07,14.19,0,21.29,0A2.25,2.25,0,0,1,31.74,14.43Z"/><path d="M51.62,10.42C52.37,3.11,57.49,0,62.27,0s9.85,3.34,10.55,10.42c2.42,0,4.86.13,7.28,0,4.55-.3,6.53,1.74,6.39,6.39-.12,4.08-1.37,7.38-5,9.34a9.82,9.82,0,0,1-4.3,1.15c-9.94.1-19.89.08-29.83,0A9.42,9.42,0,0,1,38,18.14q0-1.59,0-3.18a4.48,4.48,0,0,1,4.6-4.54C45.59,10.4,48.56,10.42,51.62,10.42ZM62.19,6.2a4.35,4.35,0,0,0-4.31,4.25,4.35,4.35,0,1,0,8.69-.07A4.35,4.35,0,0,0,62.19,6.2Z"/><path d="M55.19,60.82V55.54H102.5v5.28Z"/><path d="M55,87.93V82.65h47.36v5.28Z"/><path d="M102.27,109.64v5.3H54.9v-5.3Z"/><path d="M54.71,142v-5.31h47.38V142Z"/><path d="M48.52,102c-5.94,5.19-11.77,10.31-17.72,15.52L20.74,106.31l4.1-3.66,6.43,7.17L44.89,97.9Z"/><path d="M45.07,70.84,48.69,75,31,90.5c-3.34-3.74-6.64-7.43-10-11.23L25,75.6l6.45,7.17Z"/><path d="M48.86,47.93,31.14,63.45,21.1,52.2l4.07-3.64,6.45,7.16L45.26,43.79Z"/><path d="M44.73,124.94l3.61,4.12L30.62,144.6l-10-11.28,4-3.59,6.48,7.13Z"/><path class="cls-1" d="M62.19,6.2a4.35,4.35,0,0,1,4.38,4.18,4.35,4.35,0,1,1-8.69.07A4.35,4.35,0,0,1,62.19,6.2Z"/></g></g></svg>