<svg xmlns="http://www.w3.org/2000/svg" viewBox="0 0 130.29 114.01"><defs><style>.cls-1{fill:#fff;}</style></defs><title>Asset 9</title><g id="Layer_2" data-name="Layer 2"><g id="Layer_1-2" data-name="Layer 1"><path d="M0,9.21A33.37,33.37,0,0,1,2.64,4,9.91,9.91,0,0,1,10.57.07c.42,0,.85,0,1.27,0,35.52,0,71,.06,106.55-.06a11.5,11.5,0,0,1,11.9,11.94c-.15,23-.06,46-.06,69,0,4.67-2,8.23-6.24,10.19a13.75,13.75,0,0,1-5.65,1.13c-22.59.08-45.18,0-67.77,0h-1.7v21.34L35.48,100.26,21.72,114V92.35c-1.2,0-2.24,0-3.29,0-2.92,0-5.84,0-8.76-.19A10.7,10.7,0,0,1,.26,83.82,8.34,8.34,0,0,0,0,83ZM48.84,86.83h69.72c.51,0,1,0,1.53,0a4.89,4.89,0,0,0,4.59-4.46c.07-.72.1-1.44.1-2.16q0-9.72,0-19.45,0-24.42,0-48.83a6.23,6.23,0,0,0-2-5.14,6.54,6.54,0,0,0-4.54-1.25H12a19.53,19.53,0,0,0-2.16.11A4.81,4.81,0,0,0,5.57,9.86a19.23,19.23,0,0,0-.11,2.28q0,34,0,68a17.26,17.26,0,0,0,.09,1.9,5.23,5.23,0,0,0,5.1,4.74c1.65,0,3.3,0,4.95,0h6.06c0-3.49,0-6.83,0-10.16a3.42,3.42,0,0,0-.74-2,18.09,18.09,0,0,1-4.54-10.41A19,19,0,0,1,38.59,43.82c7.26,1.32,12.22,5.73,14.63,12.66,2.35,6.75.83,12.91-3.76,18.35a2.1,2.1,0,0,0-.6,1C48.82,79.48,48.84,83.07,48.84,86.83ZM35.27,76A13.55,13.55,0,1,0,21.75,62.41,13.49,13.49,0,0,0,35.27,76Zm-8,3.91v20.84l8.1-8.23,7.93,8V79.89A21.42,21.42,0,0,1,27.26,79.89Z"/><path class="cls-1" d="M48.84,86.83c0-3.76,0-7.35,0-11a2.1,2.1,0,0,1,.6-1c4.59-5.44,6.11-11.6,3.76-18.35-2.41-6.93-7.37-11.34-14.63-12.66A19,19,0,0,0,16.34,64.25a18.09,18.09,0,0,0,4.54,10.41,3.42,3.42,0,0,1,.74,2c.08,3.33,0,6.67,0,10.16H15.6c-1.65,0-3.3,0-4.95,0a5.23,5.23,0,0,1-5.1-4.74,17.26,17.26,0,0,1-.09-1.9q0-34,0-68a19.23,19.23,0,0,1,.11-2.28A4.81,4.81,0,0,1,9.81,5.62,19.53,19.53,0,0,1,12,5.51H118.28a6.54,6.54,0,0,1,4.54,1.25,6.23,6.23,0,0,1,2,5.14q0,24.41,0,48.83,0,9.72,0,19.45c0,.72,0,1.44-.1,2.16a4.89,4.89,0,0,1-4.59,4.46c-.51,0-1,0-1.53,0H48.84ZM16.32,32.51h97.55V27.27H16.32ZM65.16,48.79h48.71V43.54H65.16Zm16.32,11v5.3h32.39v-5.3Z"/><path class="cls-1" d="M35.27,76a13.55,13.55,0,1,1,.08-27.09A13.55,13.55,0,0,1,35.27,76Z"/><path class="cls-1" d="M27.26,79.89a21.42,21.42,0,0,0,16,0v20.56l-7.93-8-8.1,8.23Z"/><path d="M16.32,32.51V27.27h97.55v5.24Z"/><path d="M65.16,48.79V43.54h48.71v5.25Z"/><path d="M81.48,59.77h32.39v5.3H81.48Z"/></g></g></svg>