<svg xmlns="http://www.w3.org/2000/svg" viewBox="0 0 439.72 447.73"><defs><style>.cls-1{fill:#fcfcfc;}</style></defs><title>food</title><g id="Layer_2" data-name="Layer 2"><g id="Layer_1-2" data-name="Layer 1"><path class="cls-1" d="M268.16,228.49c-7.23-3.78-13.92-7.06-20.34-10.79-1.32-.76-2.24-3.15-2.38-4.87-1.25-15.77-2.29-31.55-3.38-47.34-.48-7-.93-13.94-1.42-21.33h174.8c-7.58,101.12-15.15,202-22.73,303.22H312.24c12-17.3,6.65-36.78,7.67-55.42.27-4.9-3.34-7.29-7.75-8.57,10.33-15.7,10.41-31.29,0-47.26,7.22-1.76,8.17-7,7.77-13.34-1.82-29.11-12.14-54.6-31.73-76.34a13.43,13.43,0,0,1-3.14-7.31c-1.19-13-2-26.13-3-39.68l-15.55.83C267.13,209.83,267.63,218.9,268.16,228.49ZM281,183.07c-.43-5.35-.82-10.23-1.26-15.67l-15.63,1c.43,5.56.8,10.42,1.2,15.65Z"/><path class="cls-1" d="M303.88,319.49H.31a92.62,92.62,0,0,1,11.09-39c20.34-36.95,51.63-56.32,94-56.71,32-.29,64-.1,95.94,0,50.83.1,95.4,39.64,101.7,90.15C303.27,315.56,303.54,317.2,303.88,319.49Zm-192-79.44H96.34v15.29h15.57Zm32.39-.23v15.56h15.29V239.82Zm63.37,15.7V240.11H192.22v15.41ZM72.22,287.45H87.67V272.1H72.22Zm48-15.53v15.55h15.47V271.92Zm63.69.22H168.32v15.23H183.9Zm32.18,15.28h15.56V272.13H216.08Z"/><path class="cls-1" d="M0,399.85H303.15c0,10.15,1.18,20.37-.31,30.19-1.67,10.95-11.68,17.66-22.91,17.67q-127.71,0-255.43,0C10.16,447.7.07,437.51,0,423.13,0,415.51,0,407.89,0,399.85Z"/><path class="cls-1" d="M173.4,383.72H94.47q-34.73,0-69.46,0c-14.51,0-25-10.13-25-24.06s10.6-23.89,25.16-23.89c24,0,48-.09,72,.1a16.08,16.08,0,0,1,8.25,2.43c21.16,13.88,42.16,28,63.2,42C169.8,381.11,171,382,173.4,383.72Z"/><path class="cls-1" d="M216.22,127.36V104h223.5v23.33Z"/><path class="cls-1" d="M130.73,336H263.1l-9.6,7c-16.55,12-33.16,24-49.58,36.18-3,2.23-5,2.46-8.2.32C174.53,365.17,153.19,351,130.73,336Z"/><path class="cls-1" d="M225.8,382.78q10.6-7.72,21.21-15.47c12.64-9.2,25.35-18.29,37.87-27.66,2.93-2.19,5.13-2.09,8-.22a24.12,24.12,0,0,1,10.32,26.48c-2.95,10.63-11.81,17.73-22.54,17.78-18.13.09-36.27,0-54.4,0Z"/><path class="cls-1" d="M320.33,0h15.41V87.32H320.33Z"/></g></g></svg>