<svg xmlns="http://www.w3.org/2000/svg" width="256" height="56" viewBox="0 0 256 56">
  <g id="Group_42" data-name="Group 42" transform="translate(-48 -992)">
    <rect id="Rectangle_4" data-name="Rectangle 4" width="256" height="56" rx="6" transform="translate(48 992)" fill="rgba(209,55,49,0.8)"/>
    <g id="Group_7" data-name="Group 7" transform="translate(20.735 4.667)">
      <g id="Group_5" data-name="Group 5" transform="translate(67.265 1002)">
        <path id="Path_21" data-name="Path 21" d="M287.822-622.26q1.5,0,2.993,0c3.464,0,3.464,0,3.157,3.377-.553,6.088-4.406,10.516-9.995,11.488a13.272,13.272,0,0,1-14.581-7.549,13,13,0,0,1,3.793-15.712,13.153,13.153,0,0,1,15.543-.592c.46.332,1.84.685.854,1.523-1.111.943-1.544,3.335-3.723,2.4s-4.325-1.709-6.712-.95a7.9,7.9,0,0,0-5.811,7.052,7.629,7.629,0,0,0,3.616,7.683,7.969,7.969,0,0,0,8.935.131,6.554,6.554,0,0,0,2.408-2.8c.531-1.054.258-1.528-.957-1.505-1.5.028-3-.1-4.488-.02-2.053.111-1.421-1.366-1.462-2.383s-.384-2.269,1.444-2.162C284.492-622.185,286.159-622.262,287.822-622.26Z" transform="translate(-268.18 633.506)" fill="#fffefe"/>
        <path id="Path_22" data-name="Path 22" d="M334.157-607.32c-1.376.268-2.059-.25-1.826-1.71.24-1.509-.34-2.175-1.891-1.923-1.7.275-1.817-.731-1.849-2.07-.033-1.382.37-2.061,1.8-1.807,1.774.314,2.145-.627,1.936-2.1-.219-1.55.662-1.758,1.926-1.739,1.2.019,2.227.077,1.965,1.687-.281,1.729.394,2.446,2.14,2.154,1.444-.242,1.633.615,1.564,1.768-.063,1.059.223,2.34-1.527,2.1-1.709-.235-2.464.38-2.18,2.15S335.246-607.267,334.157-607.32Z" transform="translate(-298.452 626.073)" fill="#fefbfa"/>
      </g>
    </g>
    <text id="SIGN_IN" data-name="SIGN IN" transform="translate(147 1007)" fill="#fff" font-size="22" font-family="Roboto-Black, Roboto" font-weight="800" letter-spacing="0.01em"><tspan x="22.131" y="21">SIGN IN</tspan></text>
  </g>
</svg>
